<svg xmlns="http://www.w3.org/2000/svg" width="512" height="128" viewBox="0 0 512 128"><g transform="translate(0 0)"><path d="M28 31H100V94H28Z" fill="#ecae50" opacity=".20"/><path d="M31 35H97V89H31Z" fill="#f7d987" opacity=".18"/><path d="M38 89V61q5-10 10 0v28" fill="#3e3931" opacity=".28"/><path d="M64 31V94M28 62H100" stroke="#3c4133" stroke-width="4" opacity=".64"/></g><g transform="translate(128 0)"><path d="M28 31H100V94H28Z" fill="#ecae50" opacity=".20"/><path d="M31 35H97V89H31Z" fill="#f7d987" opacity=".18"/><path d="M48 89V61q5-10 10 0v28" fill="#3e3931" opacity=".28"/><path d="M64 31V94M28 62H100" stroke="#3c4133" stroke-width="4" opacity=".64"/></g><g transform="translate(256 0)"><path d="M28 31H100V94H28Z" fill="#ecae50" opacity=".20"/><path d="M31 35H97V89H31Z" fill="#f7d987" opacity=".18"/><path d="M58 89V61q5-10 10 0v28" fill="#3e3931" opacity=".28"/><path d="M64 31V94M28 62H100" stroke="#3c4133" stroke-width="4" opacity=".64"/></g><g transform="translate(384 0)"><path d="M28 31H100V94H28Z" fill="#ecae50" opacity=".20"/><path d="M31 35H97V89H31Z" fill="#f7d987" opacity=".18"/><path d="M68 89V61q5-10 10 0v28" fill="#3e3931" opacity=".28"/><path d="M64 31V94M28 62H100" stroke="#3c4133" stroke-width="4" opacity=".64"/></g></svg>
