<svg xmlns="http://www.w3.org/2000/svg" width="820" height="154" viewBox="0 0 820 154" data-glyphs="TRANSMISSION ENDED"><defs><linearGradient id="steel" x2="0" y2="1"><stop stop-color="#1d2933"/><stop offset=".48" stop-color="#070b13"/><stop offset="1" stop-color="#203140"/></linearGradient><linearGradient id="ice" x2="0" y2="1"><stop stop-color="#f4fbff"/><stop offset=".5" stop-color="#a8daf2"/><stop offset="1" stop-color="#68899d"/></linearGradient></defs><path d="M30 8H790L812 30V122L789 146H31L8 124V30Z" fill="url(#steel)" fill-opacity=".94" stroke="#92c4da" stroke-width="2"/><path d="M42 19H778M42 135H778M19 42V112M801 42V112" fill="none" stroke="#405b70"/><path d="M8 55H25V94H8M812 55H795V94H812" fill="#0c1723" stroke="#ccf4ff"/><path d="M43 29H195M625 29H777" stroke="#86c3dc" stroke-width="2"/><path d="M644 106h144" stroke="#b9a1d9" stroke-width="2"/><g fill="none" stroke="#a4c8d6" opacity=".65"><path d="M32,117v17" stroke-width="1"/><path d="M36,117v17" stroke-width="2"/><path d="M40,117v17" stroke-width="3"/><path d="M44,117v17" stroke-width="1"/><path d="M48,117v17" stroke-width="2"/><path d="M52,117v17" stroke-width="3"/><path d="M56,117v17" stroke-width="1"/><path d="M60,117v17" stroke-width="2"/><path d="M64,117v17" stroke-width="3"/><path d="M68,117v17" stroke-width="1"/><path d="M72,117v17" stroke-width="2"/><path d="M76,117v17" stroke-width="3"/><path d="M80,117v17" stroke-width="1"/><path d="M84,117v17" stroke-width="2"/><path d="M88,117v17" stroke-width="3"/><path d="M92,117v17" stroke-width="1"/><path d="M96,117v17" stroke-width="2"/><path d="M100,117v17" stroke-width="3"/><path d="M104,117v17" stroke-width="1"/><path d="M108,117v17" stroke-width="2"/><path d="M112,117v17" stroke-width="3"/><path d="M116,117v17" stroke-width="1"/><path d="M120,117v17" stroke-width="2"/><path d="M683 116h92m-92 6h46m12 0h34m-92 6h65m-65 6h92"/></g><path d="M95,48h5v5h-5zM101,48h5v5h-5zM107,48h5v5h-5zM113,48h5v5h-5zM119,48h5v5h-5zM107,54h5v5h-5zM107,60h5v5h-5zM107,66h5v5h-5zM107,72h5v5h-5zM107,78h5v5h-5zM107,84h5v5h-5zM131,48h5v5h-5zM137,48h5v5h-5zM143,48h5v5h-5zM149,48h5v5h-5zM131,54h5v5h-5zM155,54h5v5h-5zM131,60h5v5h-5zM155,60h5v5h-5zM131,66h5v5h-5zM137,66h5v5h-5zM143,66h5v5h-5zM149,66h5v5h-5zM131,72h5v5h-5zM143,72h5v5h-5zM131,78h5v5h-5zM149,78h5v5h-5zM131,84h5v5h-5zM155,84h5v5h-5zM173,48h5v5h-5zM179,48h5v5h-5zM185,48h5v5h-5zM167,54h5v5h-5zM191,54h5v5h-5zM167,60h5v5h-5zM191,60h5v5h-5zM167,66h5v5h-5zM173,66h5v5h-5zM179,66h5v5h-5zM185,66h5v5h-5zM191,66h5v5h-5zM167,72h5v5h-5zM191,72h5v5h-5zM167,78h5v5h-5zM191,78h5v5h-5zM167,84h5v5h-5zM191,84h5v5h-5zM203,48h5v5h-5zM227,48h5v5h-5zM203,54h5v5h-5zM209,54h5v5h-5zM227,54h5v5h-5zM203,60h5v5h-5zM209,60h5v5h-5zM227,60h5v5h-5zM203,66h5v5h-5zM215,66h5v5h-5zM227,66h5v5h-5zM203,72h5v5h-5zM221,72h5v5h-5zM227,72h5v5h-5zM203,78h5v5h-5zM221,78h5v5h-5zM227,78h5v5h-5zM203,84h5v5h-5zM227,84h5v5h-5zM245,48h5v5h-5zM251,48h5v5h-5zM257,48h5v5h-5zM263,48h5v5h-5zM239,54h5v5h-5zM239,60h5v5h-5zM245,66h5v5h-5zM251,66h5v5h-5zM257,66h5v5h-5zM263,72h5v5h-5zM263,78h5v5h-5zM239,84h5v5h-5zM245,84h5v5h-5zM251,84h5v5h-5zM257,84h5v5h-5zM275,48h5v5h-5zM299,48h5v5h-5zM275,54h5v5h-5zM281,54h5v5h-5zM293,54h5v5h-5zM299,54h5v5h-5zM275,60h5v5h-5zM287,60h5v5h-5zM299,60h5v5h-5zM275,66h5v5h-5zM287,66h5v5h-5zM299,66h5v5h-5zM275,72h5v5h-5zM299,72h5v5h-5zM275,78h5v5h-5zM299,78h5v5h-5zM275,84h5v5h-5zM299,84h5v5h-5zM311,48h5v5h-5zM317,48h5v5h-5zM323,48h5v5h-5zM329,48h5v5h-5zM335,48h5v5h-5zM323,54h5v5h-5zM323,60h5v5h-5zM323,66h5v5h-5zM323,72h5v5h-5zM323,78h5v5h-5zM311,84h5v5h-5zM317,84h5v5h-5zM323,84h5v5h-5zM329,84h5v5h-5zM335,84h5v5h-5zM353,48h5v5h-5zM359,48h5v5h-5zM365,48h5v5h-5zM371,48h5v5h-5zM347,54h5v5h-5zM347,60h5v5h-5zM353,66h5v5h-5zM359,66h5v5h-5zM365,66h5v5h-5zM371,72h5v5h-5zM371,78h5v5h-5zM347,84h5v5h-5zM353,84h5v5h-5zM359,84h5v5h-5zM365,84h5v5h-5zM389,48h5v5h-5zM395,48h5v5h-5zM401,48h5v5h-5zM407,48h5v5h-5zM383,54h5v5h-5zM383,60h5v5h-5zM389,66h5v5h-5zM395,66h5v5h-5zM401,66h5v5h-5zM407,72h5v5h-5zM407,78h5v5h-5zM383,84h5v5h-5zM389,84h5v5h-5zM395,84h5v5h-5zM401,84h5v5h-5zM419,48h5v5h-5zM425,48h5v5h-5zM431,48h5v5h-5zM437,48h5v5h-5zM443,48h5v5h-5zM431,54h5v5h-5zM431,60h5v5h-5zM431,66h5v5h-5zM431,72h5v5h-5zM431,78h5v5h-5zM419,84h5v5h-5zM425,84h5v5h-5zM431,84h5v5h-5zM437,84h5v5h-5zM443,84h5v5h-5zM461,48h5v5h-5zM467,48h5v5h-5zM473,48h5v5h-5zM455,54h5v5h-5zM479,54h5v5h-5zM455,60h5v5h-5zM479,60h5v5h-5zM455,66h5v5h-5zM479,66h5v5h-5zM455,72h5v5h-5zM479,72h5v5h-5zM455,78h5v5h-5zM479,78h5v5h-5zM461,84h5v5h-5zM467,84h5v5h-5zM473,84h5v5h-5zM491,48h5v5h-5zM515,48h5v5h-5zM491,54h5v5h-5zM497,54h5v5h-5zM515,54h5v5h-5zM491,60h5v5h-5zM497,60h5v5h-5zM515,60h5v5h-5zM491,66h5v5h-5zM503,66h5v5h-5zM515,66h5v5h-5zM491,72h5v5h-5zM509,72h5v5h-5zM515,72h5v5h-5zM491,78h5v5h-5zM509,78h5v5h-5zM515,78h5v5h-5zM491,84h5v5h-5zM515,84h5v5h-5zM551,48h5v5h-5zM557,48h5v5h-5zM563,48h5v5h-5zM569,48h5v5h-5zM575,48h5v5h-5zM551,54h5v5h-5zM551,60h5v5h-5zM551,66h5v5h-5zM557,66h5v5h-5zM563,66h5v5h-5zM569,66h5v5h-5zM551,72h5v5h-5zM551,78h5v5h-5zM551,84h5v5h-5zM557,84h5v5h-5zM563,84h5v5h-5zM569,84h5v5h-5zM575,84h5v5h-5zM587,48h5v5h-5zM611,48h5v5h-5zM587,54h5v5h-5zM593,54h5v5h-5zM611,54h5v5h-5zM587,60h5v5h-5zM593,60h5v5h-5zM611,60h5v5h-5zM587,66h5v5h-5zM599,66h5v5h-5zM611,66h5v5h-5zM587,72h5v5h-5zM605,72h5v5h-5zM611,72h5v5h-5zM587,78h5v5h-5zM605,78h5v5h-5zM611,78h5v5h-5zM587,84h5v5h-5zM611,84h5v5h-5zM623,48h5v5h-5zM629,48h5v5h-5zM635,48h5v5h-5zM641,48h5v5h-5zM623,54h5v5h-5zM647,54h5v5h-5zM623,60h5v5h-5zM647,60h5v5h-5zM623,66h5v5h-5zM647,66h5v5h-5zM623,72h5v5h-5zM647,72h5v5h-5zM623,78h5v5h-5zM647,78h5v5h-5zM623,84h5v5h-5zM629,84h5v5h-5zM635,84h5v5h-5zM641,84h5v5h-5zM659,48h5v5h-5zM665,48h5v5h-5zM671,48h5v5h-5zM677,48h5v5h-5zM683,48h5v5h-5zM659,54h5v5h-5zM659,60h5v5h-5zM659,66h5v5h-5zM665,66h5v5h-5zM671,66h5v5h-5zM677,66h5v5h-5zM659,72h5v5h-5zM659,78h5v5h-5zM659,84h5v5h-5zM665,84h5v5h-5zM671,84h5v5h-5zM677,84h5v5h-5zM683,84h5v5h-5zM695,48h5v5h-5zM701,48h5v5h-5zM707,48h5v5h-5zM713,48h5v5h-5zM695,54h5v5h-5zM719,54h5v5h-5zM695,60h5v5h-5zM719,60h5v5h-5zM695,66h5v5h-5zM719,66h5v5h-5zM695,72h5v5h-5zM719,72h5v5h-5zM695,78h5v5h-5zM719,78h5v5h-5zM695,84h5v5h-5zM701,84h5v5h-5zM707,84h5v5h-5zM713,84h5v5h-5z" fill="url(#ice)"/><path d="M26 26h9v9h-9ZM785 26h9v9h-9ZM26 119h9v9h-9ZM785 119h9v9h-9Z" fill="#9ca5b8"/></svg>
